<svg xmlns="http://www.w3.org/2000/svg" width="383.31" height="64.53" viewBox="0 0 383.31 64.53">
  <g id="グループ_161" data-name="グループ 161" transform="translate(-768.284 -10066.219)">
    <g id="グループ_89" data-name="グループ 89" transform="translate(427.421 3018.313)">
      <g id="グループ_26" data-name="グループ 26" transform="translate(340.863 7047.906)">
        <g id="パス_48" data-name="パス 48" transform="translate(25.198)" fill="#1b1b64">
          <path d="M 338.725341796875 63.03008270263672 L 1.499989032745361 63.03008270263672 L 1.499989032745361 1.49999213218689 L 338.725341796875 1.49999213218689 L 338.725341796875 63.03008270263672 Z" stroke="none"/>
          <path d="M 3 2.999992370605469 L 3 61.53008270263672 L 337.225341796875 61.53008270263672 L 337.225341796875 2.999992370605469 L 3 2.999992370605469 M 0 -7.62939453125e-06 L 340.225341796875 -7.62939453125e-06 L 340.225341796875 64.53008270263672 L 0 64.53008270263672 L 0 -7.62939453125e-06 Z" stroke="none" fill="#1b1b64"/>
        </g>
        <g id="楕円形_14" data-name="楕円形 14" transform="translate(0)" fill="#1b1b64" stroke="#1b1b64" stroke-width="3">
          <ellipse cx="24.889" cy="32.188" rx="24.889" ry="32.188" stroke="none"/>
          <ellipse cx="24.889" cy="32.188" rx="23.389" ry="30.688" fill="none"/>
        </g>
        <g id="楕円形_16" data-name="楕円形 16" transform="translate(333.532)" fill="#1b1b64" stroke="#1b1b64" stroke-width="3">
          <ellipse cx="24.889" cy="32.188" rx="24.889" ry="32.188" stroke="none"/>
          <ellipse cx="24.889" cy="32.188" rx="23.389" ry="30.688" fill="none"/>
        </g>
      </g>
    </g>
    <text id="お問い合わせ" transform="translate(960 10109)" fill="#fff" font-size="28" font-family="HiraginoSans-W4, Hiragino Sans"><tspan x="-84" y="0">お問い合わせ</tspan></text>
  </g>
</svg>
