<svg xmlns="http://www.w3.org/2000/svg" xmlns:xlink="http://www.w3.org/1999/xlink" width="1920" height="1080" viewBox="0 0 1920 1080">
  <defs>
    <style>
      .cls-1 {
        clip-path: url(#clip-LP-トップページ-);
      }

      .cls-14, .cls-2, .cls-4, .cls-8 {
        fill: #f3f0ea;
      }

      .cls-15, .cls-3 {
        fill: none;
      }

      .cls-11, .cls-3 {
        stroke: #f3f0ea;
      }

      .cls-3 {
        stroke-width: 3px;
      }

      .cls-4 {
        font-size: 50px;
      }

      .cls-4, .cls-5, .cls-8 {
        font-family: TsukuARdGothic-Bold, Tsukushi A Round Gothic;
        font-weight: 700;
      }

      .cls-5, .cls-7 {
        fill: #6ea19d;
      }

      .cls-5 {
        font-size: 100px;
      }

      .cls-6 {
        font-family: LucidaGrande-Bold, Lucida Grande;
      }

      .cls-8 {
        font-size: 62px;
      }

      .cls-10, .cls-11, .cls-9 {
        fill: #a1c7bb;
      }

      .cls-11 {
        stroke-width: 7px;
      }

      .cls-12 {
        fill: #fcf9f2;
      }

      .cls-13, .cls-14 {
        stroke: none;
      }

      .cls-16 {
        filter: url(#合体_1);
      }

      .cls-17 {
        filter: url(#長方形_4);
      }

      .cls-18 {
        filter: url(#合体_7);
      }

      .cls-19 {
        filter: url(#合体_2);
      }
    </style>
    <filter id="合体_2" x="1451.583" y="207.263" width="516.262" height="550.276" filterUnits="userSpaceOnUse">
      <feOffset dx="10" dy="10" input="SourceAlpha"/>
      <feGaussianBlur stdDeviation="3" result="blur"/>
      <feFlood flood-opacity="0.161"/>
      <feComposite operator="in" in2="blur"/>
      <feComposite in="SourceGraphic"/>
    </filter>
    <filter id="合体_7" x="496.001" y="121" width="1016.999" height="644" filterUnits="userSpaceOnUse">
      <feOffset dx="10" dy="10" input="SourceAlpha"/>
      <feGaussianBlur stdDeviation="3" result="blur-2"/>
      <feFlood flood-opacity="0.161"/>
      <feComposite operator="in" in2="blur-2"/>
      <feComposite in="SourceGraphic"/>
    </filter>
    <filter id="長方形_4" x="496" y="746" width="947" height="194" filterUnits="userSpaceOnUse">
      <feOffset dx="10" dy="10" input="SourceAlpha"/>
      <feGaussianBlur stdDeviation="3" result="blur-3"/>
      <feFlood flood-opacity="0.161"/>
      <feComposite operator="in" in2="blur-3"/>
      <feComposite in="SourceGraphic"/>
    </filter>
    <filter id="合体_1" x="-55.175" y="439.16" width="552.042" height="580.937" filterUnits="userSpaceOnUse">
      <feOffset dx="10" dy="10" input="SourceAlpha"/>
      <feGaussianBlur stdDeviation="3" result="blur-4"/>
      <feFlood flood-opacity="0.161"/>
      <feComposite operator="in" in2="blur-4"/>
      <feComposite in="SourceGraphic"/>
    </filter>
    <clipPath id="clip-LP-トップページ-">
      <rect width="1920" height="1080"/>
    </clipPath>
  </defs>
  <g id="LP-トップページ-" class="cls-1">
    <rect class="cls-9" width="1920" height="1080"/>
    <g class="cls-19" transform="matrix(1, 0, 0, 1, 0, 0)">
      <path id="合体_2-2" data-name="合体 2" class="cls-2" d="M100.054,388.507A49.866,49.866,0,0,1,103.591,370H0V258.308A50.039,50.039,0,0,0,73.862,236.2a49.985,49.985,0,0,0-46.07-69.462A49.763,49.763,0,0,0,0,175.166V70H104.16a50,50,0,1,1,91.679,0H300V170.989a50,50,0,1,0,0,91.5V370H196.517a50.006,50.006,0,1,1-96.463,18.507Z" transform="matrix(-0.82, 0.57, -0.57, -0.82, 1948.85, 566.47)"/>
    </g>
    <line id="線_1" data-name="線 1" class="cls-3" y1="28" x2="75" transform="translate(1475.5 705.5)"/>
    <line id="線_2" data-name="線 2" class="cls-3" x2="75" y2="19" transform="translate(1473.5 769.5)"/>
    <text id="カチッ" class="cls-4" transform="translate(1533 765)"><tspan x="0" y="0">カチッ</tspan></text>
    <g id="グループ_13" data-name="グループ 13">
      <g class="cls-18" transform="matrix(1, 0, 0, 1, 0, 0)">
        <path id="合体_7-2" data-name="合体 7" class="cls-2" d="M150,445V-180H903.088a49.76,49.76,0,0,0-3.767,10.529A50.292,50.292,0,0,0,898-158a49.687,49.687,0,0,0,3.929,19.462,49.83,49.83,0,0,0,10.714,15.892,49.837,49.837,0,0,0,15.893,10.715A49.689,49.689,0,0,0,948-108a49.694,49.694,0,0,0,19.463-3.929,49.837,49.837,0,0,0,15.893-10.715,49.848,49.848,0,0,0,10.715-15.892A49.69,49.69,0,0,0,998-158a50.3,50.3,0,0,0-1.322-11.471A49.813,49.813,0,0,0,992.912-180H1078V294.16a50,50,0,1,1,0,91.679V445Z" transform="translate(346 301)"/>
      </g>
      <text id="誰よりも_スマートな_就活をしよう_" data-name="誰よりも
スマートな
就活をしよう‼︎" class="cls-5" transform="translate(591 207)"><tspan x="0" y="88">誰よりも</tspan><tspan x="0" y="268">スマートな</tspan><tspan x="0" y="448">就活をしよう</tspan><tspan class="cls-6" y="448">‼︎</tspan></text>
      <circle id="楕円形_3" data-name="楕円形 3" class="cls-2" cx="50" cy="50" r="50" transform="translate(426 195)"/>
      <circle id="楕円形_6" data-name="楕円形 6" class="cls-7" cx="50" cy="50" r="50" transform="translate(604 693)"/>
      <g class="cls-17" transform="matrix(1, 0, 0, 1, 0, 0)">
        <rect id="長方形_4-2" data-name="長方形 4" class="cls-7" width="928" height="175" transform="translate(496 746)"/>
      </g>
      <circle id="楕円形_13" data-name="楕円形 13" class="cls-2" cx="50" cy="50" r="50" transform="translate(1244 702)"/>
      <text id="効率のいい就活のススメ" class="cls-8" transform="translate(619 864)"><tspan x="0" y="0">効率のいい就活のススメ</tspan></text>
    </g>
    <g id="グループ_1" data-name="グループ 1" transform="translate(337.881 35.906) rotate(28)">
      <g class="cls-16" transform="matrix(0.88, -0.47, 0.47, 0.88, -315.19, 126.92)">
        <path id="合体_1-2" data-name="合体 1" class="cls-2" d="M99.693,370a49.828,49.828,0,0,1,4.16-20H0V245.694A49.829,49.829,0,0,1-19.881,249.8a50,50,0,0,1-50-50,50,50,0,0,1,50-50A49.829,49.829,0,0,1,0,153.911V50H104.411a50,50,0,1,1,91.883,0H300V350H195.533a50.005,50.005,0,1,1-95.84,20Z" transform="translate(203.7 489.42) rotate(28)"/>
      </g>
      <circle id="楕円形_2" data-name="楕円形 2" class="cls-9" cx="50" cy="50" r="50" transform="translate(326 606)"/>
    </g>
    <g id="グループ_36" data-name="グループ 36" transform="matrix(0.819, -0.574, 0.574, 0.819, 1376.095, -547.178)">
      <g id="グループ_32" data-name="グループ 32" transform="translate(-394 956)">
        <g id="合体_52" data-name="合体 52" class="cls-10" transform="translate(67.768 90.101) rotate(-45)">
          <path class="cls-13" d="M 15.79118824005127 109.9948043823242 C 12.37457180023193 109.9948043823242 9.16243839263916 108.6642761230469 6.746488094329834 106.2483215332031 C 4.330538272857666 103.8323745727539 3.000005006790161 100.6202392578125 3.000005006790161 97.20362091064453 C 3.000005006790161 97.10868835449219 3.001055002212524 97.01247406005859 3.00310492515564 96.91764068603516 L 3.069771528244019 93.85242462158203 L 3.000005006790161 93.85242462158203 L 3.000005006790161 3.000005960464478 L 28.58237075805664 3.000005960464478 L 28.58237075805664 93.85242462158203 L 28.51642227172852 93.85242462158203 L 28.57925415039062 96.91764068603516 C 28.58132171630859 97.01296997070312 28.58237075805664 97.10919189453125 28.58237075805664 97.20362091064453 C 28.58237075805664 100.6202392578125 27.25185585021973 103.8323745727539 24.83588790893555 106.2483215332031 C 22.4199390411377 108.6642761230469 19.20780563354492 109.9948043823242 15.79118824005127 109.9948043823242 Z"/>
          <path class="cls-14" d="M 15.79118824005127 106.9948043823242 C 21.19006729125977 106.9948043823242 25.58236885070801 102.6024856567383 25.58236885070801 96.85242462158203 L 25.58236885070801 6.000006198883057 L 6.000008106231689 6.000006198883057 L 6.000008106231689 97.20360565185547 C 6.000008106231689 102.6024856567383 10.39230823516846 106.9948043823242 15.79118824005127 106.9948043823242 M 15.79118824005127 112.9948043823242 C 7.070028305053711 112.9948043823242 8.240051101893187e-06 105.9247894287109 8.240051101893187e-06 97.20360565185547 C 8.240051101893187e-06 97.08650970458984 0.001288240076974034 96.96892547607422 0.003828240092843771 96.85242462158203 L 8.240051101893187e-06 96.85242462158203 L 8.240051101893187e-06 6.005859177093953e-06 L 31.58236885070801 6.005859177093953e-06 L 31.58236885070801 96.85242462158203 L 31.57854843139648 96.85242462158203 C 31.58106803894043 96.96892547607422 31.58236885070801 97.08650970458984 31.58236885070801 97.20360565185547 C 31.58236885070801 105.9247894287109 24.51234817504883 112.9948043823242 15.79118824005127 112.9948043823242 Z"/>
        </g>
        <g id="楕円形_125" data-name="楕円形 125" class="cls-11">
          <circle class="cls-13" cx="72.299" cy="72.299" r="72.299"/>
          <circle class="cls-15" cx="72.299" cy="72.299" r="68.799"/>
        </g>
      </g>
      <path id="前面オブジェクトで型抜き_25" data-name="前面オブジェクトで型抜き 25" class="cls-12" d="M21.569,76.169H10a10.011,10.011,0,0,1-10-10V10A10.011,10.011,0,0,1,10,0H48.642a10.011,10.011,0,0,1,10,10V66.168a10.011,10.011,0,0,1-10,10H37.073v-15.5h-15.5v15.5ZM39.028,34.376a6.007,6.007,0,0,0-6,6v6.2a6.007,6.007,0,0,0,6,6h6.2a6.007,6.007,0,0,0,6-6v-6.2a6.007,6.007,0,0,0-6-6Zm-24.266,0a6.007,6.007,0,0,0-6,6v6.2a6.007,6.007,0,0,0,6,6h6.2a6.007,6.007,0,0,0,6-6v-6.2a6.007,6.007,0,0,0-6-6ZM39.028,10.111a6.007,6.007,0,0,0-6,6v6.2a6.007,6.007,0,0,0,6,6h6.2a6.007,6.007,0,0,0,6-6v-6.2a6.007,6.007,0,0,0-6-6Zm-24.266,0a6.007,6.007,0,0,0-6,6v6.2a6.007,6.007,0,0,0,6,6h6.2a6.007,6.007,0,0,0,6-6v-6.2a6.007,6.007,0,0,0-6-6Z" transform="translate(-350.984 993.628)"/>
    </g>
    <g id="グループ_37" data-name="グループ 37" transform="translate(-1514 1640)">
      <g id="グループ_35" data-name="グループ 35" transform="matrix(0.883, 0.469, -0.469, 0.883, 2724.142, -1571.648)">
        <g id="合体_52-2" data-name="合体 52" class="cls-10" transform="translate(-548.332 1076.488) rotate(-45)">
          <path class="cls-13" d="M 19.00216674804688 132.9711608886719 C 14.72788715362549 132.9711608886719 10.70938682556152 131.306640625 7.686966896057129 128.2841949462891 C 4.66452693939209 125.2617568969727 3.000006675720215 121.243278503418 3.000006675720215 116.9689788818359 C 3.000006675720215 116.8501205444336 3.001306772232056 116.7299575805664 3.003886699676514 116.6118621826172 L 3.070806741714478 113.5463790893555 L 3.000006675720215 113.5463790893555 L 3.000006675720215 3.000000476837158 L 35.00432586669922 3.000000476837158 L 35.00432586669922 113.5463790893555 L 34.93812561035156 113.5463790893555 L 35.00042724609375 116.6118621826172 C 35.00300598144531 116.7305603027344 35.00432586669922 116.8507232666016 35.00432586669922 116.9689788818359 C 35.00432586669922 121.243278503418 33.33980560302734 125.2617568969727 30.31736755371094 128.2841949462891 C 27.29494667053223 131.306640625 23.27644729614258 132.9711608886719 19.00216674804688 132.9711608886719 Z"/>
          <path class="cls-14" d="M 19.00216674804688 129.9711761474609 C 26.17157554626465 129.9711761474609 32.00432586669922 124.1384201049805 32.00432586669922 116.5463790893555 L 32.00432586669922 6.000012397766113 L 6.000007629394531 6.000012397766113 L 6.000007629394531 116.9689865112305 C 6.000007629394531 124.1384201049805 11.8327579498291 129.9711761474609 19.00216674804688 129.9711761474609 M 19.00216674804688 135.9711761474609 C 8.507643699645996 135.9711761474609 7.657137757632881e-06 127.463508605957 7.657137757632881e-06 116.9689865112305 C 7.657137757632881e-06 116.8280792236328 0.001553111709654331 116.6865539550781 0.004598566330969334 116.5463790893555 L 7.657137757632881e-06 116.5463790893555 L 7.657137757632881e-06 1.22625178846647e-05 L 38.00432586669922 1.22625178846647e-05 L 38.00432586669922 116.5463790893555 L 37.99971389770508 116.5463790893555 C 38.00275802612305 116.6865539550781 38.00432586669922 116.8280792236328 38.00432586669922 116.9689865112305 C 38.00432586669922 127.463508605957 29.49668884277344 135.9711761474609 19.00216674804688 135.9711761474609 Z"/>
        </g>
        <g id="楕円形_125-2" data-name="楕円形 125" class="cls-11" transform="translate(-643 956)">
          <circle class="cls-13" cx="87" cy="87" r="87"/>
          <circle class="cls-15" cx="87" cy="87" r="83.5"/>
        </g>
        <path id="合体_51" data-name="合体 51" class="cls-2" d="M34.222,113.97h0Zm-.783,0-.782,0s0,0,0-.008C3.979,113.668.78,105.253.293,101.438c-.5-3.884-.7-8.689,2.234-33.882C4.359,51.8,16.3,44.031,24.989,40.424A21.129,21.129,0,1,1,42.07,40.5c8.67,3.639,20.46,11.407,22.28,27.056,2.931,25.193,2.731,30,2.234,33.882-.488,3.815-3.687,12.23-32.366,12.524a.019.019,0,0,0,0,.008Zm-.783,0h0Z" transform="translate(-589 986)"/>
      </g>
    </g>
  </g>
</svg>
