<svg xmlns="http://www.w3.org/2000/svg" xmlns:xlink="http://www.w3.org/1999/xlink" width="1920" height="869" viewBox="0 0 1920 869">
  <defs>
    <style>
      .cls-1 {
        clip-path: url(#clip-LP-効率よく進めるコツパート);
      }

      .cls-2 {
        fill: #6ea19d;
      }

      .cls-3 {
        fill: #f3f0ea;
        font-size: 60px;
        font-family: TsukuARdGothic-Bold, Tsukushi A Round Gothic;
        font-weight: 700;
      }

      .cls-4 {
        fill: none;
        stroke: #f3f0ea;
        stroke-linecap: round;
        stroke-width: 10px;
        stroke-dasharray: 10 30;
      }

      .cls-5 {
        fill: #a1c7bb;
      }

      .cls-6 {
        filter: url(#前面オブジェクトで型抜き_21);
      }

      .cls-7 {
        filter: url(#合体_29);
      }
    </style>
    <filter id="合体_29" x="0" y="85.999" width="1939" height="636" filterUnits="userSpaceOnUse">
      <feOffset dx="10" input="SourceAlpha"/>
      <feGaussianBlur stdDeviation="3" result="blur"/>
      <feFlood flood-opacity="0.161"/>
      <feComposite operator="in" in2="blur"/>
      <feComposite in="SourceGraphic"/>
    </filter>
    <filter id="前面オブジェクトで型抜き_21" x="593.755" y="94.578" width="343.49" height="353.843" filterUnits="userSpaceOnUse">
      <feOffset dx="10" dy="10" input="SourceAlpha"/>
      <feGaussianBlur stdDeviation="3" result="blur-2"/>
      <feFlood flood-opacity="0.161"/>
      <feComposite operator="in" in2="blur-2"/>
      <feComposite in="SourceGraphic"/>
    </filter>
    <clipPath id="clip-LP-効率よく進めるコツパート">
      <rect width="1920" height="869"/>
    </clipPath>
  </defs>
  <g id="LP-効率よく進めるコツパート" class="cls-1">
    <rect class="cls-5" width="1920" height="869"/>
    <g id="効率良く就活を進めるポイント-見出し-" transform="translate(0 -151)">
      <g id="グループ_50" data-name="グループ 50">
        <g id="グループ_20" data-name="グループ 20" transform="translate(0 246)">
          <g class="cls-7" transform="matrix(1, 0, 0, 1, 0, -95)">
            <path id="合体_29-2" data-name="合体 29" class="cls-2" d="M-2341-3282h-192v0h-192v-192h0v-192h-192v-65.593a31.945,31.945,0,0,0,10,1.594,31.8,31.8,0,0,0,12.455-2.515,31.881,31.881,0,0,0,10.172-6.857,31.875,31.875,0,0,0,6.857-10.172A31.781,31.781,0,0,0-2875-3762a31.779,31.779,0,0,0-2.515-12.455,31.884,31.884,0,0,0-6.857-10.172,31.884,31.884,0,0,0-10.172-6.858A31.8,31.8,0,0,0-2907-3794a31.961,31.961,0,0,0-10,1.594V-3858h65.594a31.993,31.993,0,0,1-1.593-10,31.8,31.8,0,0,1,2.514-12.455,31.908,31.908,0,0,1,6.858-10.172,31.91,31.91,0,0,1,10.171-6.858A31.8,31.8,0,0,1-2821-3900a31.8,31.8,0,0,1,12.456,2.514,31.9,31.9,0,0,1,10.172,6.858,31.915,31.915,0,0,1,6.858,10.172A31.8,31.8,0,0,1-2789-3868a31.977,31.977,0,0,1-1.593,10h131.187a31.971,31.971,0,0,0-1.594,10,31.8,31.8,0,0,0,2.515,12.455,31.9,31.9,0,0,0,6.857,10.172,31.9,31.9,0,0,0,10.172,6.858A31.8,31.8,0,0,0-2629-3816a31.8,31.8,0,0,0,12.457-2.515,31.894,31.894,0,0,0,10.172-6.858,31.886,31.886,0,0,0,6.857-10.172A31.8,31.8,0,0,0-2597-3848a31.949,31.949,0,0,0-1.594-10H-2533v65.594a31.975,31.975,0,0,1,10-1.594,31.8,31.8,0,0,1,12.455,2.515,31.888,31.888,0,0,1,10.171,6.857,31.9,31.9,0,0,1,6.858,10.172A31.8,31.8,0,0,1-2491-3762a31.8,31.8,0,0,1-2.514,12.456,31.9,31.9,0,0,1-6.858,10.172,31.888,31.888,0,0,1-10.171,6.857A31.8,31.8,0,0,1-2523-3730a31.922,31.922,0,0,1-10-1.594V-3666h65.593a31.991,31.991,0,0,1-1.593-10,32,32,0,0,1,32-32,32,32,0,0,1,32,32,31.991,31.991,0,0,1-1.593,10H-2341v65.594a31.977,31.977,0,0,0-10-1.594,31.8,31.8,0,0,0-12.456,2.515,31.894,31.894,0,0,0-10.171,6.858,31.867,31.867,0,0,0-6.857,10.172A31.781,31.781,0,0,0-2383-3570a31.789,31.789,0,0,0,2.516,12.457,31.887,31.887,0,0,0,6.857,10.171,31.894,31.894,0,0,0,10.171,6.858A31.805,31.805,0,0,0-2351-3538a31.991,31.991,0,0,0,10-1.593V-3474h65.594a31.985,31.985,0,0,1-1.593-10,32,32,0,0,1,32-32,32,32,0,0,1,32,32,31.985,31.985,0,0,1-1.593,10H-2149v192Zm-576,0v-384h192v384Zm-192,0v-192h192v192Zm-192,0h-768v-192h192v-192h257.594a31.953,31.953,0,0,0-1.593,10,31.78,31.78,0,0,0,2.515,12.455,31.862,31.862,0,0,0,6.857,10.172,31.892,31.892,0,0,0,10.172,6.857A31.78,31.78,0,0,0-3589-3624a31.788,31.788,0,0,0,12.456-2.515,31.888,31.888,0,0,0,10.171-6.857,31.86,31.86,0,0,0,6.857-10.172A31.78,31.78,0,0,0-3557-3656a31.946,31.946,0,0,0-1.595-10H-3493v64.94a31.922,31.922,0,0,1,11-1.941,32,32,0,0,1,32,32,32,32,0,0,1-32,32,31.945,31.945,0,0,1-11-1.94V-3474h65.593a31.985,31.985,0,0,1-1.593-10,32,32,0,0,1,32-32,32,32,0,0,1,32,32,31.985,31.985,0,0,1-1.593,10h131.187a31.985,31.985,0,0,1-1.593-10,32,32,0,0,1,32-32,32,32,0,0,1,32,32,31.985,31.985,0,0,1-1.593,10H-3109v192Zm384-192h-192v-65.593a31.945,31.945,0,0,0,10,1.594,31.8,31.8,0,0,0,12.455-2.515,31.886,31.886,0,0,0,10.172-6.857,31.875,31.875,0,0,0,6.857-10.172A31.78,31.78,0,0,0-3067-3570a31.788,31.788,0,0,0-2.515-12.456,31.887,31.887,0,0,0-6.857-10.171,31.889,31.889,0,0,0-10.172-6.858A31.8,31.8,0,0,0-3099-3602a31.961,31.961,0,0,0-10,1.594V-3666h65.594a31.993,31.993,0,0,1-1.593-10,31.8,31.8,0,0,1,2.514-12.455,31.9,31.9,0,0,1,6.858-10.172,31.911,31.911,0,0,1,10.171-6.858A31.8,31.8,0,0,1-3013-3708a31.8,31.8,0,0,1,12.455,2.514,31.9,31.9,0,0,1,10.172,6.858,31.894,31.894,0,0,1,6.858,10.172A31.8,31.8,0,0,1-2981-3676a31.975,31.975,0,0,1-1.593,10H-2917v192h0Zm-1152,0v-192h65.594a31.986,31.986,0,0,1-1.593-10,32,32,0,0,1,32-32,32,32,0,0,1,32,32,31.986,31.986,0,0,1-1.594,10H-3877v192Zm384-192h-192v-67.592a31.938,31.938,0,0,0,10,1.594,31.8,31.8,0,0,0,12.456-2.515,31.9,31.9,0,0,0,10.172-6.857,31.9,31.9,0,0,0,6.858-10.172A31.8,31.8,0,0,0-3835-3764a31.8,31.8,0,0,0-2.514-12.456,31.9,31.9,0,0,0-6.858-10.172,31.9,31.9,0,0,0-10.172-6.857A31.8,31.8,0,0,0-3867-3796a31.964,31.964,0,0,0-10,1.594V-3858h65.594a31.964,31.964,0,0,1-1.592-10,31.806,31.806,0,0,1,2.514-12.458,31.887,31.887,0,0,1,6.857-10.171,31.873,31.873,0,0,1,10.171-6.858A31.8,31.8,0,0,1-3781-3900a31.809,31.809,0,0,1,12.456,2.515,31.889,31.889,0,0,1,10.172,6.858,31.889,31.889,0,0,1,6.858,10.171A31.806,31.806,0,0,1-3749-3868a31.965,31.965,0,0,1-1.593,10H-3685v65.327a31.926,31.926,0,0,1,12-2.325,32,32,0,0,1,32,32,32,32,0,0,1-32,32,31.9,31.9,0,0,1-12-2.326V-3666h0Z" transform="translate(4069 3995)"/>
          </g>
          <g class="cls-6" transform="matrix(1, 0, 0, 1, 0, -95)">
            <path id="前面オブジェクトで型抜き_21-2" data-name="前面オブジェクトで型抜き 21" class="cls-2" d="M-3857-4411a31.8,31.8,0,0,1-12.456-2.515,31.9,31.9,0,0,1-10.171-6.858,31.9,31.9,0,0,1-6.858-10.171A31.8,31.8,0,0,1-3889-4443a31.968,31.968,0,0,1,1.594-10H-3953v-65.594a31.959,31.959,0,0,0,10,1.594,31.8,31.8,0,0,0,12.455-2.515,31.89,31.89,0,0,0,10.172-6.857,31.885,31.885,0,0,0,6.858-10.171A31.8,31.8,0,0,0-3911-4549a31.8,31.8,0,0,0-2.515-12.456,31.885,31.885,0,0,0-6.858-10.171,31.89,31.89,0,0,0-10.172-6.857A31.8,31.8,0,0,0-3943-4581a31.957,31.957,0,0,0-10,1.594V-4645h65.594a31.966,31.966,0,0,1-1.594-10,31.8,31.8,0,0,1,2.515-12.457,31.9,31.9,0,0,1,6.858-10.171,31.9,31.9,0,0,1,10.171-6.858A31.8,31.8,0,0,1-3857-4687a31.807,31.807,0,0,1,12.456,2.515,31.9,31.9,0,0,1,10.172,6.858,31.9,31.9,0,0,1,6.858,10.171A31.8,31.8,0,0,1-3825-4655a31.968,31.968,0,0,1-1.594,10H-3761v65.594a31.983,31.983,0,0,0-10-1.593,31.805,31.805,0,0,0-12.456,2.515,31.894,31.894,0,0,0-10.171,6.857,31.887,31.887,0,0,0-6.858,10.171A31.8,31.8,0,0,0-3803-4549a31.8,31.8,0,0,0,2.515,12.456,31.887,31.887,0,0,0,6.858,10.171,31.894,31.894,0,0,0,10.171,6.857A31.805,31.805,0,0,0-3771-4517a31.98,31.98,0,0,0,10-1.593V-4453h-65.593a31.966,31.966,0,0,1,1.594,10,31.8,31.8,0,0,1-2.515,12.457,31.9,31.9,0,0,1-6.858,10.171,31.9,31.9,0,0,1-10.172,6.858A31.807,31.807,0,0,1-3857-4411Z" transform="matrix(0.77, -0.64, 0.64, 0.77, 6634.67, 1267.5)"/>
          </g>
        </g>
        <rect id="長方形_113" data-name="長方形 113" class="cls-2" width="1920" height="156" transform="translate(0 864)"/>
        <text id="効率良く就活を進めるための_つのポイント" data-name="効率良く就活を進めるための３つのポイント" class="cls-3" transform="translate(960 872)"><tspan x="-600" y="0">効率良く就活を進めるための３つのポイント</tspan></text>
        <path id="パス_10" data-name="パス 10" class="cls-4" d="M0,11.906H1250" transform="translate(325.5 897.594)"/>
      </g>
    </g>
  </g>
</svg>
