<svg xmlns="http://www.w3.org/2000/svg" xmlns:xlink="http://www.w3.org/1999/xlink" width="746.052" height="145.349" viewBox="0 0 746.052 145.349">
  <defs>
    <style>
      .cls-1 {
        fill: #6ea19d;
      }

      .cls-2 {
        fill: #a1c7bb;
      }

      .cls-3 {
        fill: #f3f0ea;
      }

      .cls-4 {
        fill: #5c3f2d;
        font-size: 42px;
        font-family: TsukuARdGothic-Bold, Tsukushi A Round Gothic;
        font-weight: 700;
      }

      .cls-5 {
        filter: url(#長方形_144);
      }
    </style>
    <filter id="長方形_144" x="55" y="48" width="656" height="69" filterUnits="userSpaceOnUse">
      <feOffset dx="10" dy="10" input="SourceAlpha"/>
      <feGaussianBlur stdDeviation="3" result="blur"/>
      <feFlood flood-opacity="0.161"/>
      <feComposite operator="in" in2="blur"/>
      <feComposite in="SourceGraphic"/>
    </filter>
  </defs>
  <g id="グループ_76" data-name="グループ 76" transform="translate(-587 -789)">
    <g id="グループ_74" data-name="グループ 74" transform="translate(-5993.614 -5136)">
      <path id="合体_54" data-name="合体 54" class="cls-1" d="M127.4,109.013H90.842c0-.059,0-.12,0-.179a18.169,18.169,0,1,0-36.337,0c0,.059,0,.12,0,.179H18.388V72.495h-.219a18.169,18.169,0,1,1,0-36.337h.219V0H54.507a18.051,18.051,0,0,0,1.476,7.009,18.111,18.111,0,0,0,3.9,5.718,18.1,18.1,0,0,0,5.755,3.852,18.058,18.058,0,0,0,7.034,1.411,18.053,18.053,0,0,0,7.033-1.411,18.1,18.1,0,0,0,5.755-3.852,18.11,18.11,0,0,0,3.9-5.718A18.049,18.049,0,0,0,90.842,0H127.4V36.16a18.169,18.169,0,0,1,0,36.335v36.517h0Z" transform="translate(6669.187 5943.168)"/>
      <path id="合体_56" data-name="合体 56" class="cls-2" d="M127.4,109.013H90.842c0-.059,0-.12,0-.179a18.169,18.169,0,1,0-36.337,0c0,.059,0,.12,0,.179H18.388V72.495h-.219a18.169,18.169,0,1,1,0-36.337h.219V0H54.507a18.051,18.051,0,0,0,1.476,7.009,18.111,18.111,0,0,0,3.9,5.718,18.1,18.1,0,0,0,5.755,3.852,18.058,18.058,0,0,0,7.034,1.411,18.053,18.053,0,0,0,7.033-1.411,18.1,18.1,0,0,0,5.755-3.852,18.11,18.11,0,0,0,3.9-5.718A18.049,18.049,0,0,0,90.842,0H127.4V36.16a18.169,18.169,0,0,1,0,36.335v36.517h0Z" transform="translate(6902.541 5925) rotate(90)"/>
      <path id="合体_57" data-name="合体 57" class="cls-1" d="M127.4,109.013H90.842c0-.059,0-.12,0-.179a18.169,18.169,0,1,0-36.337,0c0,.059,0,.12,0,.179H18.388V72.495h-.219a18.169,18.169,0,1,1,0-36.337h.219V0H54.507a18.051,18.051,0,0,0,1.476,7.009,18.111,18.111,0,0,0,3.9,5.718,18.1,18.1,0,0,0,5.755,3.852,18.058,18.058,0,0,0,7.034,1.411,18.053,18.053,0,0,0,7.033-1.411,18.1,18.1,0,0,0,5.755-3.852,18.11,18.11,0,0,0,3.9-5.718A18.049,18.049,0,0,0,90.842,0H127.4V36.16a18.169,18.169,0,0,1,0,36.335v36.517h0Z" transform="translate(7091.041 5943.168)"/>
      <path id="合体_59" data-name="合体 59" class="cls-1" d="M127.4,109.013H90.842c0-.059,0-.12,0-.179a18.169,18.169,0,1,0-36.337,0c0,.059,0,.12,0,.179H18.388V72.495h-.219a18.169,18.169,0,1,1,0-36.337h.219V0H54.507a18.051,18.051,0,0,0,1.476,7.009,18.111,18.111,0,0,0,3.9,5.718,18.1,18.1,0,0,0,5.755,3.852,18.058,18.058,0,0,0,7.034,1.411,18.053,18.053,0,0,0,7.033-1.411,18.1,18.1,0,0,0,5.755-3.852,18.11,18.11,0,0,0,3.9-5.718A18.049,18.049,0,0,0,90.842,0H127.4V36.16a18.169,18.169,0,0,1,0,36.335v36.517h0Z" transform="translate(6879.262 5943.168)"/>
      <path id="合体_58" data-name="合体 58" class="cls-2" d="M127.4,109.013H90.842c0-.059,0-.12,0-.179a18.169,18.169,0,1,0-36.337,0c0,.059,0,.12,0,.179H18.388V72.495h-.219a18.169,18.169,0,1,1,0-36.337h.219V0H54.507a18.051,18.051,0,0,0,1.476,7.009,18.111,18.111,0,0,0,3.9,5.718,18.1,18.1,0,0,0,5.755,3.852,18.058,18.058,0,0,0,7.034,1.411,18.053,18.053,0,0,0,7.033-1.411,18.1,18.1,0,0,0,5.755-3.852,18.11,18.11,0,0,0,3.9-5.718A18.049,18.049,0,0,0,90.842,0H127.4V36.16a18.169,18.169,0,0,1,0,36.335v36.517h0Z" transform="translate(7113.751 5925) rotate(90)"/>
      <path id="合体_60" data-name="合体 60" class="cls-2" d="M127.4,109.013H90.842c0-.059,0-.12,0-.179a18.169,18.169,0,1,0-36.337,0c0,.059,0,.12,0,.179H18.388V72.495h-.219a18.169,18.169,0,1,1,0-36.337h.219V0H54.507a18.051,18.051,0,0,0,1.476,7.009,18.111,18.111,0,0,0,3.9,5.718,18.1,18.1,0,0,0,5.755,3.852,18.058,18.058,0,0,0,7.034,1.411,18.053,18.053,0,0,0,7.033-1.411,18.1,18.1,0,0,0,5.755-3.852,18.11,18.11,0,0,0,3.9-5.718A18.049,18.049,0,0,0,90.842,0H127.4V36.16a18.169,18.169,0,0,1,0,36.335v36.517h0Z" transform="translate(7326.666 5925) rotate(90)"/>
      <path id="合体_55" data-name="合体 55" class="cls-2" d="M127.4,109.013H90.842c0-.059,0-.12,0-.179a18.169,18.169,0,1,0-36.337,0c0,.059,0,.12,0,.179H18.388V72.495h-.219a18.169,18.169,0,1,1,0-36.337h.219V0H54.507a18.051,18.051,0,0,0,1.476,7.009,18.111,18.111,0,0,0,3.9,5.718,18.1,18.1,0,0,0,5.755,3.852,18.058,18.058,0,0,0,7.034,1.411,18.053,18.053,0,0,0,7.033-1.411,18.1,18.1,0,0,0,5.755-3.852,18.11,18.11,0,0,0,3.9-5.718A18.049,18.049,0,0,0,90.842,0H127.4V36.16a18.169,18.169,0,0,1,0,36.335v36.517h0Z" transform="translate(6689.626 5925) rotate(90)"/>
    </g>
    <g class="cls-5" transform="matrix(1, 0, 0, 1, 587, 789)">
      <rect id="長方形_144-2" data-name="長方形 144" class="cls-3" width="637" height="50" rx="25" transform="translate(55 48)"/>
    </g>
    <text id="キャリアワークカフェへGO" class="cls-4" transform="translate(960 877)"><tspan x="-263.844" y="0">キャリアワークカフェへGO</tspan></text>
  </g>
</svg>
