<svg xmlns="http://www.w3.org/2000/svg" width="235.094" height="234.001" viewBox="0 0 235.094 234.001">
  <defs>
    <style>
      .cls-1 {
        opacity: 0.759;
      }

      .cls-2 {
        fill: #ef3f98;
        opacity: 0.813;
      }
    </style>
  </defs>
  <g id="グループ_79" data-name="グループ 79" class="cls-1" transform="translate(-7500.067 -6254.685)">
    <path id="合体_61" data-name="合体 61" class="cls-2" d="M66.271,234H0V168.284a32.392,32.392,0,0,0,22.919-.8,32.026,32.026,0,0,0,10.215-6.857,31.892,31.892,0,0,0,6.888-10.172,31.979,31.979,0,0,0,0-24.911,31.882,31.882,0,0,0-6.888-10.172A32.1,32.1,0,0,0,10.41,106,32.2,32.2,0,0,0,0,107.716V42H65.421a32.137,32.137,0,1,1,61.073,0h66.327v65.624a32,32,0,1,1,0,60.751V234H127.345a32.137,32.137,0,1,0-61.073,0h0Z" transform="translate(7500.067 6254.685)"/>
  </g>
</svg>
