<svg xmlns="http://www.w3.org/2000/svg" width="309.96" height="405" viewBox="0 0 309.96 405">
  <defs>
    <style>
      .cls-1, .cls-2, .cls-4 {
        fill: #e9bf70;
      }

      .cls-2 {
        stroke: #fcf9f2;
        stroke-width: 7px;
      }

      .cls-3, .cls-5, .cls-7 {
        fill: #fcf9f2;
      }

      .cls-5 {
        font-size: 38px;
        font-family: TsukuARdGothic-Bold, Tsukushi A Round Gothic;
        font-weight: 700;
      }

      .cls-6, .cls-7 {
        stroke: none;
      }

      .cls-8 {
        fill: none;
      }
    </style>
  </defs>
  <g id="グループ_66" data-name="グループ 66" transform="translate(-445 -2402)">
    <g id="グループ_39" data-name="グループ 39" transform="translate(445 2402)">
      <g id="合体_52" data-name="合体 52" class="cls-1" transform="translate(134.796 171.561) rotate(-45)">
        <path class="cls-6" d="M 27.05677032470703 190.6063690185547 C 23.8078498840332 190.6063690185547 20.65766525268555 189.9707183837891 17.69376945495605 188.7170867919922 C 14.82948112487793 187.5055847167969 12.25642776489258 185.7705841064453 10.04611206054688 183.5602569580078 C 7.83579683303833 181.3499450683594 6.100796699523926 178.7769012451172 4.889296531677246 175.9126129150391 C 3.63566517829895 172.9486846923828 3.000007152557373 169.7985229492188 3.000007152557373 166.5496063232422 C 3.000007152557373 166.3718414306641 3.001980781555176 166.1913146972656 3.005849361419678 166.0130767822266 L 3.072533369064331 162.9478454589844 L 3.000007152557373 162.9478454589844 L 3.000007152557373 3.000000238418579 L 51.11353302001953 3.000000238418579 L 51.11353302001953 162.9478454589844 L 51.04058456420898 162.9478454589844 L 51.107666015625 166.0134735107422 C 51.1115608215332 166.1911773681641 51.11353302001953 166.3715515136719 51.11353302001953 166.5496063232422 C 51.11353302001953 169.7985229492188 50.47787475585938 172.9486846923828 49.2242431640625 175.9126129150391 C 48.01274490356445 178.7769012451172 46.27774429321289 181.3499450683594 44.06742858886719 183.5602569580078 C 41.85711288452148 185.7705841064453 39.28406143188477 187.5055847167969 36.41976928710938 188.7170867919922 C 33.45587539672852 189.9707183837891 30.30569076538086 190.6063690185547 27.05677032470703 190.6063690185547 Z"/>
        <path class="cls-7" d="M 27.05677032470703 187.6063690185547 C 38.66751861572266 187.6063690185547 48.11355209350586 178.1603393554688 48.11355209350586 165.9478454589844 L 48.11355209350586 5.999997138977051 L 5.999989032745361 5.999997138977051 L 5.999989032745361 166.5495910644531 C 5.999989032745361 178.1603393554688 15.44602012634277 187.6063690185547 27.05677032470703 187.6063690185547 M 27.05677032470703 193.6063690185547 C 12.11386394500732 193.6063690185547 -1.092529328161618e-05 181.4924926757812 -1.092529328161618e-05 166.5495910644531 C -1.092529328161618e-05 166.3489685058594 0.002207824727520347 166.1474304199219 0.006551574915647507 165.9478454589844 L -1.092529328161618e-05 165.9478454589844 L -1.092529328161618e-05 -2.990722578033456e-06 L 54.11355209350586 -2.990722578033456e-06 L 54.11355209350586 165.9478454589844 L 54.10695648193359 165.9478454589844 C 54.11130142211914 166.1474304199219 54.11355209350586 166.3489685058594 54.11355209350586 166.5495910644531 C 54.11355209350586 181.4924926757812 41.99967575073242 193.6063690185547 27.05677032470703 193.6063690185547 Z"/>
      </g>
      <g id="楕円形_125" data-name="楕円形 125" class="cls-2" transform="translate(0 0)">
        <circle class="cls-6" cx="123.877" cy="123.877" r="123.877"/>
        <circle class="cls-8" cx="123.877" cy="123.877" r="120.377"/>
      </g>
      <path id="前面オブジェクトで型抜き_25" data-name="前面オブジェクトで型抜き 25" class="cls-3" d="M36.519,128.958H10a10.011,10.011,0,0,1-10-10V10A10.011,10.011,0,0,1,10,0H89.286a10.011,10.011,0,0,1,10,10V118.957a10.011,10.011,0,0,1-10,10H62.767V102.71H36.519v26.248ZM61.919,58.2a6.006,6.006,0,0,0-6,6V83.015a6.006,6.006,0,0,0,6,6H80.733a6.006,6.006,0,0,0,6-6V64.2a6.006,6.006,0,0,0-6-6Zm-41.083,0a6.007,6.007,0,0,0-6,6V83.015a6.007,6.007,0,0,0,6,6H39.649a6.007,6.007,0,0,0,6-6V64.2a6.007,6.007,0,0,0-6-6ZM61.919,17.118a6.007,6.007,0,0,0-6,6V41.931a6.007,6.007,0,0,0,6,6H80.733a6.007,6.007,0,0,0,6-6V23.118a6.007,6.007,0,0,0-6-6Zm-41.083,0a6.007,6.007,0,0,0-6,6V41.931a6.007,6.007,0,0,0,6,6H39.649a6.007,6.007,0,0,0,6-6V23.118a6.007,6.007,0,0,0-6-6Z" transform="translate(74.042 59.803)"/>
    </g>
    <rect id="長方形_129" data-name="長方形 129" class="cls-4" width="286" height="79" rx="20" transform="translate(445 2728)"/>
    <text id="_-企業研究-" data-name="-企業研究-" class="cls-5" transform="translate(588 2782)"><tspan x="-94.316" y="0">-企業研究-</tspan></text>
  </g>
</svg>
