<svg xmlns="http://www.w3.org/2000/svg" xmlns:xlink="http://www.w3.org/1999/xlink" width="1920" height="180" viewBox="0 0 1920 180">
  <defs>
    <style>
      .cls-1 {
        clip-path: url(#clip-目標設定をする_);
      }

      .cls-2, .cls-4 {
        fill: #f3f0ea;
      }

      .cls-2 {
        font-size: 56px;
      }

      .cls-2, .cls-5 {
        font-family: TsukuARdGothic-Bold, Tsukushi A Round Gothic;
        font-weight: 700;
      }

      .cls-3 {
        fill: none;
        stroke: #f3f0ea;
        stroke-width: 10px;
      }

      .cls-5, .cls-6 {
        fill: #6ea19d;
      }

      .cls-5 {
        font-size: 42px;
      }

      .cls-7 {
        filter: url(#前面オブジェクトで型抜き_23);
      }
    </style>
    <filter id="前面オブジェクトで型抜き_23" x="338.547" y="23" width="199" height="154" filterUnits="userSpaceOnUse">
      <feOffset dx="10" dy="10" input="SourceAlpha"/>
      <feGaussianBlur stdDeviation="3" result="blur"/>
      <feFlood flood-opacity="0.161"/>
      <feComposite operator="in" in2="blur"/>
      <feComposite in="SourceGraphic"/>
    </filter>
    <clipPath id="clip-目標設定をする_">
      <rect width="1920" height="180"/>
    </clipPath>
  </defs>
  <g id="目標設定をする_" data-name="目標設定をする！" class="cls-1">
    <rect class="cls-6" width="1920" height="180"/>
    <g id="グループ_24" data-name="グループ 24" transform="translate(50 -829)">
      <text id="目標を設定する_" data-name="目標を設定する！" class="cls-2" transform="translate(-50 881)"><tspan x="737.12" y="49">目標を設定する！</tspan></text>
      <path id="パス_7" data-name="パス 7" class="cls-3" d="M0,0V60" transform="translate(568.5 889.5)"/>
      <g id="グループ_21" data-name="グループ 21" transform="translate(-189 1)">
        <g class="cls-7" transform="matrix(1, 0, 0, 1, 139, 828)">
          <path id="前面オブジェクトで型抜き_23-2" data-name="前面オブジェクトで型抜き 23" class="cls-4" d="M-3885.5-4507a23.875,23.875,0,0,1-8.758-1.64,22.588,22.588,0,0,1-7.151-4.473,20.784,20.784,0,0,1-4.822-6.633,19.452,19.452,0,0,1-1.768-8.124,19.488,19.488,0,0,1,1.121-6.521H-3953v-42.779a24.085,24.085,0,0,0,7.032,1.04,23.872,23.872,0,0,0,8.758-1.641,22.591,22.591,0,0,0,7.152-4.472,20.788,20.788,0,0,0,4.822-6.633,19.447,19.447,0,0,0,1.768-8.124,19.446,19.446,0,0,0-1.768-8.123,20.784,20.784,0,0,0-4.822-6.634,22.617,22.617,0,0,0-7.152-4.472,23.871,23.871,0,0,0-8.758-1.64,24.075,24.075,0,0,0-7.032,1.039v-42.779h46.121a19.479,19.479,0,0,1-1.121-6.521,19.457,19.457,0,0,1,1.768-8.124,20.789,20.789,0,0,1,4.822-6.633,22.6,22.6,0,0,1,7.151-4.473,23.884,23.884,0,0,1,8.758-1.64,23.888,23.888,0,0,1,8.758,1.64,22.6,22.6,0,0,1,7.152,4.473,20.794,20.794,0,0,1,4.822,6.633,19.457,19.457,0,0,1,1.768,8.124,19.471,19.471,0,0,1-1.121,6.521H-3818v42.778a24.1,24.1,0,0,0-7.031-1.039,23.876,23.876,0,0,0-8.758,1.64,22.609,22.609,0,0,0-7.152,4.472,20.785,20.785,0,0,0-4.822,6.634,19.446,19.446,0,0,0-1.768,8.123,19.448,19.448,0,0,0,1.768,8.124,20.788,20.788,0,0,0,4.822,6.633,22.591,22.591,0,0,0,7.152,4.472,23.877,23.877,0,0,0,8.758,1.641,24.076,24.076,0,0,0,7.031-1.04v42.779h-46.12a19.47,19.47,0,0,1,1.121,6.521,19.452,19.452,0,0,1-1.768,8.124,20.788,20.788,0,0,1-4.822,6.633,22.592,22.592,0,0,1-7.152,4.473A23.878,23.878,0,0,1-3885.5-4507Z" transform="translate(-4168.45 3976) rotate(90)"/>
        </g>
        <text id="Point1" class="cls-5" transform="translate(490 891)"><tspan x="18.084" y="37">Point1</tspan></text>
      </g>
    </g>
  </g>
</svg>
