<svg xmlns="http://www.w3.org/2000/svg" width="315.431" height="455.593" viewBox="0 0 315.431 455.593">
  <defs>
    <style>
      .cls-1, .cls-3 {
        fill: #e37155;
      }

      .cls-2, .cls-4, .cls-6 {
        fill: #fcf9f2;
      }

      .cls-4 {
        font-size: 38px;
        font-family: TsukuARdGothic-Bold, Tsukushi A Round Gothic;
        font-weight: 700;
      }

      .cls-5, .cls-6 {
        stroke: none;
      }
    </style>
  </defs>
  <g id="グループ_65" data-name="グループ 65" transform="translate(-435 -1766.407)">
    <g id="合体_53" data-name="合体 53" class="cls-1" transform="translate(2499.004 10310.898)">
      <path class="cls-5" d="M -1775.871948242188 -8247.572265625 C -1779.02880859375 -8247.572265625 -1782.105590820312 -8248.1708984375 -1785.0166015625 -8249.3515625 C -1788.02880859375 -8250.5732421875 -1790.732788085938 -8252.369140625 -1793.053466796875 -8254.689453125 C -1793.177124023438 -8254.8134765625 -1793.300170898438 -8254.939453125 -1793.430908203125 -8255.076171875 L -1795.573120117188 -8257.31640625 L -1795.627075195312 -8257.26171875 L -1909.756469726562 -8371.392578125 L -1875.393310546875 -8405.7568359375 L -1761.214233398438 -8291.578125 L -1761.262084960938 -8291.529296875 L -1759.079467773438 -8289.4345703125 C -1758.928833007812 -8289.2900390625 -1758.806030273438 -8289.1708984375 -1758.692993164062 -8289.056640625 C -1756.369995117188 -8286.734375 -1754.574096679688 -8284.0302734375 -1753.3525390625 -8281.017578125 C -1752.172119140625 -8278.1064453125 -1751.573486328125 -8275.0302734375 -1751.573486328125 -8271.8720703125 C -1751.573486328125 -8268.71484375 -1752.172119140625 -8265.6376953125 -1753.3525390625 -8262.7265625 C -1754.574096679688 -8259.7138671875 -1756.369995117188 -8257.009765625 -1758.6904296875 -8254.689453125 C -1761.010986328125 -8252.369140625 -1763.714965820312 -8250.5732421875 -1766.727172851562 -8249.3515625 C -1769.638305664062 -8248.1708984375 -1772.714965820312 -8247.572265625 -1775.871948242188 -8247.572265625 Z"/>
      <path class="cls-6" d="M -1775.871948242188 -8250.572265625 C -1770.18359375 -8250.572265625 -1764.835083007812 -8252.7880859375 -1760.811767578125 -8256.810546875 C -1756.788940429688 -8260.833984375 -1754.573486328125 -8266.1826171875 -1754.573486328125 -8271.8720703125 C -1754.573486328125 -8277.5615234375 -1756.788940429688 -8282.91015625 -1761.240234375 -8287.3623046875 L -1875.393310546875 -8401.5146484375 L -1905.513793945312 -8371.392578125 L -1790.93212890625 -8256.8115234375 C -1786.90869140625 -8252.7880859375 -1781.560180664062 -8250.572265625 -1775.871948242188 -8250.572265625 M -1775.871948242188 -8244.572265625 C -1782.858032226562 -8244.572265625 -1789.84423828125 -8247.23828125 -1795.174682617188 -8252.568359375 C -1795.318481445312 -8252.7119140625 -1795.45947265625 -8252.8564453125 -1795.599487304688 -8253.0029296875 L -1795.605224609375 -8252.9970703125 L -1913.9990234375 -8371.392578125 L -1875.393432617188 -8410 L -1756.99755859375 -8291.6044921875 L -1757.002319335938 -8291.599609375 C -1756.856811523438 -8291.4599609375 -1756.712280273438 -8291.3193359375 -1756.569091796875 -8291.17578125 C -1745.908325195312 -8280.515625 -1745.908325195312 -8263.2294921875 -1756.569091796875 -8252.568359375 C -1761.899536132812 -8247.23828125 -1768.8857421875 -8244.572265625 -1775.871948242188 -8244.572265625 Z"/>
    </g>
    <g id="パス_23" data-name="パス 23" class="cls-1" transform="translate(449 1766.407)">
      <path class="cls-5" d="M 124.9882354736328 246.4764862060547 C 116.7431259155273 246.4764862060547 108.5042343139648 245.6460571289062 100.5004119873047 244.0082397460938 C 92.70177459716797 242.4123840332031 85.03084564208984 240.0312042236328 77.70059204101562 236.9307708740234 C 70.50270080566406 233.8863067626953 63.56002044677734 230.117919921875 57.06544876098633 225.7302703857422 C 50.63169860839844 221.3836975097656 44.58155822753906 216.391845703125 39.08309173583984 210.8933715820312 C 33.58462905883789 205.3949127197266 28.59277153015137 199.3447723388672 24.24623489379883 192.9110260009766 C 19.85859298706055 186.4164428710938 16.09020042419434 179.4737701416016 13.04573535919189 172.2758483886719 C 9.945306777954102 164.9456329345703 7.564092636108398 157.274658203125 5.968271255493164 149.4760589599609 C 4.33044958114624 141.4722290039062 3.50002121925354 133.2333374023438 3.50002121925354 124.9882354736328 C 3.50002121925354 116.7431259155273 4.33044958114624 108.5042343139648 5.968271255493164 100.5004119873047 C 7.564092636108398 92.70177459716797 9.945306777954102 85.03080749511719 13.04573535919189 77.70059204101562 C 16.09020042419434 70.50266265869141 19.85859298706055 63.56002044677734 24.24623489379883 57.06544876098633 C 28.59277153015137 50.63169860839844 33.58462905883789 44.58155822753906 39.08309173583984 39.08309173583984 C 44.58155822753906 33.58462905883789 50.63169860839844 28.59277153015137 57.06544876098633 24.24623489379883 C 63.56002044677734 19.85859298706055 70.50266265869141 16.09020042419434 77.70059204101562 13.04573535919189 C 85.03080749511719 9.945306777954102 92.70177459716797 7.564092636108398 100.5004119873047 5.968271255493164 C 108.5042343139648 4.33044958114624 116.7431259155273 3.50002121925354 124.9882354736328 3.50002121925354 C 133.2333374023438 3.50002121925354 141.4722290039062 4.33044958114624 149.4760589599609 5.968271255493164 C 157.274658203125 7.564092636108398 164.9456329345703 9.945306777954102 172.2758483886719 13.04573535919189 C 179.4737701416016 16.09020042419434 186.4164428710938 19.85859298706055 192.9110260009766 24.24623489379883 C 199.3447723388672 28.59277153015137 205.3949127197266 33.58462905883789 210.8933715820312 39.08309173583984 C 216.391845703125 44.58155822753906 221.3836975097656 50.63169860839844 225.7302703857422 57.06544876098633 C 230.117919921875 63.56002044677734 233.8863067626953 70.50270080566406 236.9307708740234 77.70059204101562 C 240.0312042236328 85.03084564208984 242.4123840332031 92.70177459716797 244.0082397460938 100.5004119873047 C 245.6460571289062 108.5042343139648 246.4764862060547 116.7431259155273 246.4764862060547 124.9882354736328 C 246.4764862060547 133.2333374023438 245.6460571289062 141.4722290039062 244.0082397460938 149.4760589599609 C 242.4123840332031 157.274658203125 240.0312042236328 164.9456329345703 236.9307708740234 172.2758483886719 C 233.8863067626953 179.4737701416016 230.117919921875 186.4164428710938 225.7302703857422 192.9110260009766 C 221.3836975097656 199.3447723388672 216.391845703125 205.3949127197266 210.8933715820312 210.8933715820312 C 205.3949127197266 216.391845703125 199.3447723388672 221.3836975097656 192.9110260009766 225.7302703857422 C 186.4164428710938 230.117919921875 179.4737701416016 233.8863067626953 172.2758483886719 236.9307708740234 C 164.9456329345703 240.0312042236328 157.274658203125 242.4123840332031 149.4760589599609 244.0082397460938 C 141.4722290039062 245.6460571289062 133.2333374023438 246.4764862060547 124.9882354736328 246.4764862060547 Z"/>
      <path class="cls-6" d="M 124.9882354736328 7 C 59.92930603027344 7 7 59.92930603027344 7 124.9882354736328 C 7 190.0471496582031 59.92930603027344 242.9764709472656 124.9882354736328 242.9764709472656 C 190.0471496582031 242.9764709472656 242.9764709472656 190.0471496582031 242.9764709472656 124.9882354736328 C 242.9764709472656 59.92930603027344 190.0471496582031 7 124.9882354736328 7 M 124.9882354736328 0 C 194.0173034667969 0 249.9764709472656 55.95912170410156 249.9764709472656 124.9882354736328 C 249.9764709472656 194.0173034667969 194.0173034667969 249.9764709472656 124.9882354736328 249.9764709472656 C 55.95912170410156 249.9764709472656 0 194.0173034667969 0 124.9882354736328 C 0 55.95912170410156 55.95912170410156 0 124.9882354736328 0 Z"/>
    </g>
    <circle id="楕円形_124" data-name="楕円形 124" class="cls-2" cx="27.633" cy="27.633" r="27.633" transform="translate(547.217 1816.689)"/>
    <path id="パス_21" data-name="パス 21" class="cls-2" d="M-418.877,1022.146s-37.618,6.234-41.45,39.18-3.57,39.231-2.922,44.309,4.972,16.39,44.372,16.39C-419.066,1122.247-418.877,1022.146-418.877,1022.146Z" transform="translate(994.52 843.712)"/>
    <path id="パス_22" data-name="パス 22" class="cls-2" d="M-463.632,1022.146s37.618,6.234,41.45,39.18,3.57,39.231,2.922,44.309-4.972,16.39-44.372,16.39C-463.442,1122.247-463.632,1022.146-463.632,1022.146Z" transform="translate(1037.225 843.712)"/>
    <rect id="長方形_128" data-name="長方形 128" class="cls-3" width="286" height="79" rx="20" transform="translate(435 2117)"/>
    <text id="_-自己分析-" data-name="-自己分析-" class="cls-4" transform="translate(471 2136)"><tspan x="12.684" y="33">-自己分析-</tspan></text>
  </g>
</svg>
