<svg xmlns="http://www.w3.org/2000/svg" xmlns:xlink="http://www.w3.org/1999/xlink" width="835.368" height="162.75" viewBox="0 0 835.368 162.75">
  <defs>
    <style>
      .cls-1 {
        fill: #fdea99;
      }

      .cls-2 {
        fill: #ffbf74;
      }

      .cls-3 {
        fill: #5c3f2d;
      }

      .cls-4 {
        fill: #fcf9f2;
        font-size: 40px;
        font-family: TsukuARdGothic-Bold, Tsukushi A Round Gothic;
        font-weight: 700;
      }

      .cls-5 {
        filter: url(#長方形_144);
      }
    </style>
    <filter id="長方形_144" x="56.395" y="53.746" width="740.76" height="74.986" filterUnits="userSpaceOnUse">
      <feOffset dx="10" dy="10" input="SourceAlpha"/>
      <feGaussianBlur stdDeviation="3" result="blur"/>
      <feFlood flood-opacity="0.161"/>
      <feComposite operator="in" in2="blur"/>
      <feComposite in="SourceGraphic"/>
    </filter>
  </defs>
  <g id="グループ_75" data-name="グループ 75" transform="translate(-587 -789)">
    <g id="グループ_74" data-name="グループ 74" transform="translate(587 789)">
      <path id="合体_54" data-name="合体 54" class="cls-1" d="M142.651,122.064H101.718c0-.066,0-.134,0-.2a20.344,20.344,0,1,0-40.687,0c0,.066,0,.134,0,.2H20.589V81.174h-.245a20.344,20.344,0,1,1,0-40.687h.245V0H61.032a20.213,20.213,0,0,0,1.653,7.848,20.279,20.279,0,0,0,4.37,6.4A20.268,20.268,0,0,0,73.5,18.563a20.22,20.22,0,0,0,7.876,1.58,20.215,20.215,0,0,0,7.875-1.58,20.268,20.268,0,0,0,6.444-4.313,20.278,20.278,0,0,0,4.37-6.4A20.21,20.21,0,0,0,101.718,0h40.934V40.489a20.344,20.344,0,0,1,0,40.685v40.889h0Z" transform="translate(99.177 20.343)"/>
      <path id="合体_56" data-name="合体 56" class="cls-2" d="M142.651,122.064H101.718c0-.066,0-.134,0-.2a20.344,20.344,0,1,0-40.687,0c0,.066,0,.134,0,.2H20.589V81.174h-.245a20.344,20.344,0,1,1,0-40.687h.245V0H61.032a20.213,20.213,0,0,0,1.653,7.848,20.279,20.279,0,0,0,4.37,6.4A20.268,20.268,0,0,0,73.5,18.563a20.22,20.22,0,0,0,7.876,1.58,20.215,20.215,0,0,0,7.875-1.58,20.268,20.268,0,0,0,6.444-4.313,20.278,20.278,0,0,0,4.37-6.4A20.21,20.21,0,0,0,101.718,0h40.934V40.489a20.344,20.344,0,0,1,0,40.685v40.889h0Z" transform="translate(360.468) rotate(90)"/>
      <path id="合体_57" data-name="合体 57" class="cls-1" d="M142.651,122.064H101.718c0-.066,0-.134,0-.2a20.344,20.344,0,1,0-40.687,0c0,.066,0,.134,0,.2H20.589V81.174h-.245a20.344,20.344,0,1,1,0-40.687h.245V0H61.032a20.213,20.213,0,0,0,1.653,7.848,20.279,20.279,0,0,0,4.37,6.4A20.268,20.268,0,0,0,73.5,18.563a20.22,20.22,0,0,0,7.876,1.58,20.215,20.215,0,0,0,7.875-1.58,20.268,20.268,0,0,0,6.444-4.313,20.278,20.278,0,0,0,4.37-6.4A20.21,20.21,0,0,0,101.718,0h40.934V40.489a20.344,20.344,0,0,1,0,40.685v40.889h0Z" transform="translate(571.534 20.343)"/>
      <path id="合体_59" data-name="合体 59" class="cls-1" d="M142.651,122.064H101.718c0-.066,0-.134,0-.2a20.344,20.344,0,1,0-40.687,0c0,.066,0,.134,0,.2H20.589V81.174h-.245a20.344,20.344,0,1,1,0-40.687h.245V0H61.032a20.213,20.213,0,0,0,1.653,7.848,20.279,20.279,0,0,0,4.37,6.4A20.268,20.268,0,0,0,73.5,18.563a20.22,20.22,0,0,0,7.876,1.58,20.215,20.215,0,0,0,7.875-1.58,20.268,20.268,0,0,0,6.444-4.313,20.278,20.278,0,0,0,4.37-6.4A20.21,20.21,0,0,0,101.718,0h40.934V40.489a20.344,20.344,0,0,1,0,40.685v40.889h0Z" transform="translate(334.401 20.343)"/>
      <path id="合体_58" data-name="合体 58" class="cls-2" d="M142.651,122.064H101.718c0-.066,0-.134,0-.2a20.344,20.344,0,1,0-40.687,0c0,.066,0,.134,0,.2H20.589V81.174h-.245a20.344,20.344,0,1,1,0-40.687h.245V0H61.032a20.213,20.213,0,0,0,1.653,7.848,20.279,20.279,0,0,0,4.37,6.4A20.268,20.268,0,0,0,73.5,18.563a20.22,20.22,0,0,0,7.876,1.58,20.215,20.215,0,0,0,7.875-1.58,20.268,20.268,0,0,0,6.444-4.313,20.278,20.278,0,0,0,4.37-6.4A20.21,20.21,0,0,0,101.718,0h40.934V40.489a20.344,20.344,0,0,1,0,40.685v40.889h0Z" transform="translate(596.964) rotate(90)"/>
      <path id="合体_60" data-name="合体 60" class="cls-2" d="M142.651,122.064H101.718c0-.066,0-.134,0-.2a20.344,20.344,0,1,0-40.687,0c0,.066,0,.134,0,.2H20.589V81.174h-.245a20.344,20.344,0,1,1,0-40.687h.245V0H61.032a20.213,20.213,0,0,0,1.653,7.848,20.279,20.279,0,0,0,4.37,6.4A20.268,20.268,0,0,0,73.5,18.563a20.22,20.22,0,0,0,7.876,1.58,20.215,20.215,0,0,0,7.875-1.58,20.268,20.268,0,0,0,6.444-4.313,20.278,20.278,0,0,0,4.37-6.4A20.21,20.21,0,0,0,101.718,0h40.934V40.489a20.344,20.344,0,0,1,0,40.685v40.889h0Z" transform="translate(835.368) rotate(90)"/>
      <path id="合体_55" data-name="合体 55" class="cls-2" d="M142.651,122.064H101.718c0-.066,0-.134,0-.2a20.344,20.344,0,1,0-40.687,0c0,.066,0,.134,0,.2H20.589V81.174h-.245a20.344,20.344,0,1,1,0-40.687h.245V0H61.032a20.213,20.213,0,0,0,1.653,7.848,20.279,20.279,0,0,0,4.37,6.4A20.268,20.268,0,0,0,73.5,18.563a20.22,20.22,0,0,0,7.876,1.58,20.215,20.215,0,0,0,7.875-1.58,20.268,20.268,0,0,0,6.444-4.313,20.278,20.278,0,0,0,4.37-6.4A20.21,20.21,0,0,0,101.718,0h40.934V40.489a20.344,20.344,0,0,1,0,40.685v40.889h0Z" transform="translate(122.064) rotate(90)"/>
    </g>
    <g class="cls-5" transform="matrix(1, 0, 0, 1, 587, 789)">
      <rect id="長方形_144-2" data-name="長方形 144" class="cls-3" width="721.76" height="55.986" rx="27.993" transform="translate(56.39 53.75)"/>
    </g>
    <text id="キャリアワークカフェの詳細はこちら" class="cls-4" transform="translate(1004.394 885.225)"><tspan x="-337.6" y="0">キャリアワークカフェの詳細はこちら</tspan></text>
  </g>
</svg>
